<?xml version="1.0" standalone="no"?><!DOCTYPE svg PUBLIC "-//W3C//DTD SVG 1.1//EN" "http://www.w3.org/Graphics/SVG/1.1/DTD/svg11.dtd"><svg t="1620097792330" class="icon" viewBox="0 0 1024 1024" version="1.1" xmlns="http://www.w3.org/2000/svg" p-id="1375" xmlns:xlink="http://www.w3.org/1999/xlink" width="200" height="200"><defs><style type="text/css"></style></defs><path d="M838.3 876.9L375.7 562.3c-28.4-16.7-37.8-53.2-21.1-81.6 5.2-8.8 12.5-16.1 21.4-21.3l462.4-312.2c28.4-16.6 64.9-7 81.5 21.4 5.3 9.2 8.1 19.6 8.1 30.2v626.6c0 32.9-26.7 59.6-59.6 59.5-10.6 0.2-21-2.7-30.1-8zM250 816.2V208.1c0-42-34-76-76-76s-76 34-76 76v608.1c0 42 34 76 76 76s76-34 76-76z" p-id="1376"></path></svg>