<?xml version="1.0" standalone="no"?><!DOCTYPE svg PUBLIC "-//W3C//DTD SVG 1.1//EN" "http://www.w3.org/Graphics/SVG/1.1/DTD/svg11.dtd"><svg t="1620097778914" class="icon" viewBox="0 0 1024 1024" version="1.1" xmlns="http://www.w3.org/2000/svg" p-id="1198" xmlns:xlink="http://www.w3.org/1999/xlink" width="200" height="200"><defs><style type="text/css"></style></defs><path d="M187.7 147.2l462.6 314.6c28.4 16.7 37.8 53.2 21.1 81.6a59.84 59.84 0 0 1-21.4 21.3L187.6 876.8c-28.4 16.6-64.9 7-81.5-21.4-5.3-9.2-8.1-19.6-8.1-30.2V198.6c0-32.9 26.7-59.6 59.6-59.5 10.6 0 21 2.8 30.1 8.1zM776 207.9V816c0 42 34 76 76 76s76-34 76-76V207.9c0-42-34-76-76-76s-76 34.1-76 76z" p-id="1199"></path></svg>